<?xml version="1.0" encoding="utf-8"?>
<!-- Generator: Adobe Illustrator 22.0.0, SVG Export Plug-In . SVG Version: 6.00 Build 0)  -->
<svg version="1.1" id="图层_1" xmlns="http://www.w3.org/2000/svg" xmlns:xlink="http://www.w3.org/1999/xlink" x="0px" y="0px"
	 viewBox="0 0 400 80" style="enable-background:new 0 0 400 80;" xml:space="preserve">
<style type="text/css">
	.st0{fill:none;stroke:#585757;stroke-width:0.5;stroke-miterlimit:10;}
	.st1{fill:#349CD4;}
	.st2{fill:#DF772B;}
	.st3{fill:#80BF41;}
	.st4{fill:url(#SVGID_1_);}
	.st5{fill:url(#SVGID_2_);}
	.st6{fill:url(#SVGID_3_);}
	.st7{fill:url(#SVGID_4_);}
	.st8{fill:url(#SVGID_5_);}
	.st9{fill:url(#SVGID_6_);}
	.st10{fill:url(#SVGID_7_);}
	.st11{fill:url(#SVGID_8_);}
	.st12{fill:url(#SVGID_9_);}
	.st13{fill:url(#SVGID_10_);}
	.st14{fill:url(#SVGID_11_);}
	.st15{fill:url(#SVGID_12_);}
	.st16{fill:url(#SVGID_13_);}
	.st17{fill:url(#SVGID_14_);}
	.st18{fill:url(#SVGID_15_);}
	.st19{fill:url(#SVGID_16_);}
	.st20{fill:url(#SVGID_17_);stroke:url(#SVGID_18_);stroke-width:0.25;stroke-miterlimit:10;}
	.st21{fill:url(#SVGID_19_);}
	.st22{fill:#888988;}
</style>
<g>
	<line class="st0" x1="99.3" y1="15.5" x2="99.3" y2="70.1"/>
	<g>
		<path class="st1" d="M21.5,52.7c0,0-7.3-9.7-2.3-24.6L12.4,18c0,0-2,8.5-0.3,17.7C15.7,50.2,21.5,52.7,21.5,52.7z"/>
		<path class="st2" d="M22.6,50.5c0,0-0.7-18.8,21.8-33.8L42.6,0.6c-4.4,4-10.6,10.3-15.8,19.3C16.9,36.6,22.6,50.5,22.6,50.5z"/>
		<path class="st3" d="M79.1,2.8c0,0-10.2,18.7-12.7,38.8c-7.9-7-28.3-4.5-40.1,6.2c0.1-0.3,0.3-0.5,0.3-0.7
			C30.5,37,36.1,20,79.1,2.8z"/>
		<path class="st1" d="M62.8,77.9c-4.9,1.1-9,0.3-8.9,0.3c9.4-0.8,18.1-4.6,18.4-15.2c-0.1-6.4-3.3-11-9-13.8c0,0,7.3,1.6,10.6,9.9
			c-1.6-11-11-17.7-26.2-16.3c0,0,7.1-2.6,16.4,0.5c-8.7-4.5-17.5-2.6-25.3,0.4c-11.1,4.4-15.2,10.6-21.4,15.5
			c-1.5,0.9-2.6,2-3.7,2.6c-4.4,2.9-4.4,2.5-3.6,2.6c2.6-1.2,7-3.6,9.7-5.7c2.9-2.1,4.6-1.3-4.8,4.6C8.2,67.6,3.3,69,0.2,70.3
			c-1.1,1.2,2,0.4,7.1-1.5c4-1.6,7.1-3.6,7.7-3.2c0.5,0.3-0.3,1.1-2.5,2.1c-2,1.1-2.6,1.9,0.3,0.9c2.8-1.1,5.4-2.3,7.9-3.7
			c0.4-0.3,0.7-0.4,0.7-0.4s-0.3,0.1-0.3,0.3C33,58.2,42.6,49.3,52.8,53.8c2.3,1.2,5.3,3.8,6,6.6c-0.3-5.2-5.4-8.3-8.5-9
			C42.6,49.8,35,54.2,31.2,57c-4,2.6-0.1-1.9,4.9-4.4c5.8-3.2,11.9-4,16.7-2.3c9.8,3.2,10.5,14.4,4.2,19.9c2.5-1.1,4.4-3.2,5.7-5.6
			c-0.3,7.3-13.2,10.7-18.3,5.4c-3.4-3.6,0.3-8.6,3.7-7.4c0,0-2.6,0.9-2.5,3.3c0,0.4,0.3,3.7,4,4c4.6,0.3,8.3-4.5,5.8-10.1
			c-1.5-3.4-6.5-4.1-8.9-3.2c0,0-2.6-1.2-6.9,1.1c-3.8,2-5.8,9.1-0.8,14.3c0.9,2.3,2.5,4.4,4.9,5.7C50.5,81.6,58.9,79.7,62.8,77.9
			L62.8,77.9z M23.1,55.6c0,0,0.7-0.7,2.1-2c1.5-1.3,3.2-2.8,3.7-2.8c0.5,0,0.4,0.3-1.9,2.3s-2.3,2-3.2,2.9
			c-0.9,0.9-1.5,1.1-1.5,0.8C22.3,56.6,23.1,55.6,23.1,55.6z"/>
	</g>
	<g>
		
			<linearGradient id="SVGID_1_" gradientUnits="userSpaceOnUse" x1="123.8117" y1="-890.1431" x2="123.8117" y2="-882.6122" gradientTransform="matrix(1 0 0 -1 0 -840.378)">
			<stop  offset="0" style="stop-color:#1E8ECF"/>
			<stop  offset="1" style="stop-color:#41B3DF"/>
		</linearGradient>
		<polygon class="st4" points="127.1,42.3 126.1,49.8 120.6,49.8 121.6,42.3 		"/>
		
			<linearGradient id="SVGID_2_" gradientUnits="userSpaceOnUse" x1="142.0839" y1="-890.2228" x2="142.0839" y2="-882.6921" gradientTransform="matrix(1 0 0 -1 0 -840.378)">
			<stop  offset="0" style="stop-color:#1E8ECF"/>
			<stop  offset="1" style="stop-color:#41B3DF"/>
		</linearGradient>
		<polygon class="st5" points="138.8,42.4 144.3,42.4 145.3,49.8 139.8,49.8 		"/>
		<g>
			
				<linearGradient id="SVGID_3_" gradientUnits="userSpaceOnUse" x1="113.5501" y1="-862.8272" x2="113.5501" y2="-855.9141" gradientTransform="matrix(1 0 0 -1 0 -840.378)">
				<stop  offset="0" style="stop-color:#1E8ECF"/>
				<stop  offset="1" style="stop-color:#41B3DF"/>
			</linearGradient>
			<path class="st6" d="M110.1,19c0-1.1,0.3-1.9,1.1-2.4c0.7-0.7,1.5-1.1,2.4-1.1s1.7,0.3,2.4,1.1c0.7,0.7,1.1,1.5,1.1,2.4
				c0,1.1-0.3,1.9-1.1,2.5c-0.7,0.7-1.5,1.1-2.4,1.1c-1.1,0-1.9-0.3-2.4-1.1C110.5,20.7,110.1,19.9,110.1,19L110.1,19z"/>
			
				<linearGradient id="SVGID_4_" gradientUnits="userSpaceOnUse" x1="132.4844" y1="-876.4253" x2="132.4844" y2="-872.4887" gradientTransform="matrix(1 0 0 -1 0 -840.378)">
				<stop  offset="0" style="stop-color:#1E8ECF"/>
				<stop  offset="1" style="stop-color:#41B3DF"/>
			</linearGradient>
			<path class="st7" d="M120.3,32.1v4l22.1,0.1c0,0,2.3,0,2.3-1.9s-2.3-1.9-2.3-1.9L120.3,32.1L120.3,32.1z"/>
			
				<linearGradient id="SVGID_5_" gradientUnits="userSpaceOnUse" x1="133.2788" y1="-871.4779" x2="133.2788" y2="-855.942" gradientTransform="matrix(1 0 0 -1 0 -840.378)">
				<stop  offset="0" style="stop-color:#1E8ECF"/>
				<stop  offset="1" style="stop-color:#41B3DF"/>
			</linearGradient>
			<path class="st8" d="M144.5,19.5c0,0,1.9,0.1,1.9-1.9c0-1.9-1.9-2-1.9-2h-24.2v4h4.4c1.1,0,1.6,0.3,1.6,0.7v0.8h-1.9
				c-2.8,0-4.2,1.1-4.2,3.2V31h24.4v-6.5c0.1-2.4-1.3-3.6-4.1-3.6H139v-1.5L144.5,19.5L144.5,19.5z M126.4,27.2h-1.6v-2.3h0.8
				c0.5,0,0.8,0.3,0.8,1.1C126.4,26.1,126.4,27.2,126.4,27.2z M133.4,27.2h-1.7v-2.3h0.9c0.5,0,0.8,0.3,0.8,1.1
				C133.4,26,133.4,27.2,133.4,27.2z M133.4,21.1h-1.7v-1.5h0.7c0.7,0,1.1,0.3,1.1,0.8V21.1z M139.6,24.9c0.5,0,0.8,0.3,0.8,1.1V27
				h-1.6v-2.3h0.8V24.9z"/>
			
				<linearGradient id="SVGID_6_" gradientUnits="userSpaceOnUse" x1="132.6168" y1="-890.5535" x2="132.6168" y2="-877.283" gradientTransform="matrix(1 0 0 -1 0 -840.378)">
				<stop  offset="0" style="stop-color:#1E8ECF"/>
				<stop  offset="1" style="stop-color:#41B3DF"/>
			</linearGradient>
			<path class="st9" d="M142.5,37h-22.1v4.2h9.1c0,0,0,0.7,0,2.5v6.5h5.7v-9h7.3c0,0,2.3,0,2.3-2.1C144.8,36.8,142.5,37,142.5,37
				L142.5,37z"/>
			
				<linearGradient id="SVGID_7_" gradientUnits="userSpaceOnUse" x1="113.2621" y1="-889.4476" x2="113.2621" y2="-864.1146" gradientTransform="matrix(1 0 0 -1 0 -840.378)">
				<stop  offset="0" style="stop-color:#1E8ECF"/>
				<stop  offset="1" style="stop-color:#41B3DF"/>
			</linearGradient>
			<path class="st10" d="M115,39.9h-4.9c0,0,1.9-3.6,2.3-4.8c0.8-2.8-0.3-4.8-1.7-5.6v-5.7c4.8,1.6,7.7,5.3,6.5,10.7
				C116.7,35.9,115,39.9,115,39.9z M112.4,34.9l4.8-0.7c0,0-1.7,4.4-2.1,5.6c-0.9,2.8,0,2.8,1.6,3.6l-0.1,5.7
				c-4.8-1.9-9.4-4.8-6.4-9.3C110.9,38.6,112.4,34.9,112.4,34.9z"/>
		</g>
	</g>
	<g>
		
			<linearGradient id="SVGID_8_" gradientUnits="userSpaceOnUse" x1="176.576" y1="-890.5535" x2="176.576" y2="-855.925" gradientTransform="matrix(1 0 0 -1 0 -840.378)">
			<stop  offset="0" style="stop-color:#1E8ECF"/>
			<stop  offset="1" style="stop-color:#41B3DF"/>
		</linearGradient>
		<path class="st11" d="M173.4,38.6h-9v4.8h5.2c2.5,0,3.8,1.1,3.8,3.4v3.4h6v-4.4c0-1.5,1.1-2.4,2.4-2.4h4.4c0,0,2.6-0.3,2.6-2.4
			c0-2.1-2.6-2.3-2.6-2.3h-6.9v-2.5c0-1.5,1.1-2.4,2.4-2.4h4.4c0,0,2.6-0.3,2.6-2.3c0-2.3-2.6-2.5-2.6-2.5h-6.9v-3
			c0-0.9,0.8-1.7,1.7-1.7h5.2c0,0,2.6,0,2.6-2.4s-2.6-2.4-2.6-2.4h-1.9l1.9-4h-6.2c-1.2,2.6-2.4,4-3.6,4c-1.2,0-2.3-1.3-3.6-4h-6.4
			l1.9,4h-3.6v4.8h5.2c2.5,0,3.7,1.1,3.7,3v1.7h-8.1v4.5h4.4c2.4,0,3.7,1.1,3.7,3.2L173.4,38.6L173.4,38.6z"/>
		
			<linearGradient id="SVGID_9_" gradientUnits="userSpaceOnUse" x1="157.7742" y1="-862.285" x2="157.7742" y2="-855.9183" gradientTransform="matrix(1 0 0 -1 0 -840.378)">
			<stop  offset="0" style="stop-color:#1E8ECF"/>
			<stop  offset="1" style="stop-color:#41B3DF"/>
		</linearGradient>
		<path class="st12" d="M154.5,18.7c0-0.8,0.3-1.6,1.1-2.3c0.7-0.7,1.5-0.9,2.3-0.9c0.8,0,1.6,0.3,2.3,0.9c0.7,0.7,1.1,1.5,1.1,2.3
			c0,0.9-0.3,1.7-1.1,2.3c-0.7,0.7-1.5,0.9-2.3,0.9c-0.9,0-1.7-0.3-2.3-0.9C154.9,20.4,154.5,19.6,154.5,18.7L154.5,18.7z"/>
		
			<linearGradient id="SVGID_10_" gradientUnits="userSpaceOnUse" x1="157.6185" y1="-889.4476" x2="157.6185" y2="-864.1146" gradientTransform="matrix(1 0 0 -1 0 -840.378)">
			<stop  offset="0" style="stop-color:#1E8ECF"/>
			<stop  offset="1" style="stop-color:#41B3DF"/>
		</linearGradient>
		<path class="st13" d="M159.4,39.9h-4.9c0,0,1.9-3.6,2.3-4.8c0.8-2.8-0.3-4.8-1.7-5.6v-5.7c4.8,1.6,7.7,5.3,6.5,10.7
			C161.1,35.9,159.4,39.9,159.4,39.9z M156.8,34.9l4.8-0.7c0,0-1.7,4.4-2.1,5.6c-0.9,2.8,0,2.8,1.6,3.6l-0.3,5.7
			c-4.8-1.9-9.4-4.8-6.4-9.3C155.3,38.6,156.8,34.9,156.8,34.9z"/>
	</g>
	<g>
		
			<linearGradient id="SVGID_11_" gradientUnits="userSpaceOnUse" x1="221.2635" y1="-884.4286" x2="221.2635" y2="-855.9178" gradientTransform="matrix(1 0 0 -1 0 -840.378)">
			<stop  offset="0" style="stop-color:#1E8ECF"/>
			<stop  offset="1" style="stop-color:#41B3DF"/>
		</linearGradient>
		<path class="st14" d="M223.1,19h-14.8v4.8h11.3c2.4,0,3.7,1.1,3.7,3.2v11c0,0.4-0.1,0.7-0.3,1.1c-0.3,0.3-0.7,0.3-1.1,0.4h-2.6
			v4.9h6.4c1.1,0,1.9-0.4,2.6-1.2c0.7-0.7,0.9-1.5,0.9-2.4V23.7h3c0,0,2.1,0,2.1-2.5c0-2.3-2.1-2.3-2.1-2.3H229v-3.4h-6V19L223.1,19
			z"/>
		
			<linearGradient id="SVGID_12_" gradientUnits="userSpaceOnUse" x1="215.3051" y1="-890.5468" x2="215.3051" y2="-863.8068" gradientTransform="matrix(1 0 0 -1 0 -840.378)">
			<stop  offset="0" style="stop-color:#1E8ECF"/>
			<stop  offset="1" style="stop-color:#41B3DF"/>
		</linearGradient>
		<path class="st15" d="M205.7,43.2c0.1,1.1,0.7,1.7,1.6,2c0,0,16.2-0.1,21.8-0.1c2.3,0,3.6-1.2,3.6-1.2l-0.1,2.9
			c0,2.3-1.1,3.2-3.4,3.2h-20.3h-6.2h-1.1c-1.1,0-1.7-0.8-1.7-1.7V30.7c0-0.9-0.7-1.6-1.6-1.6h-0.4v-5.7c0,0,3.2,0.7,4.1,1.1
			c3.8,1.5,3.6,4.1,3.6,6.8L205.7,43.2L205.7,43.2z"/>
		
			<linearGradient id="SVGID_13_" gradientUnits="userSpaceOnUse" x1="202.263" y1="-862.4811" x2="202.263" y2="-855.9279" gradientTransform="matrix(1 0 0 -1 0 -840.378)">
			<stop  offset="0" style="stop-color:#1E8ECF"/>
			<stop  offset="1" style="stop-color:#41B3DF"/>
		</linearGradient>
		<path class="st16" d="M199,18.8c0-0.9,0.3-1.6,1.1-2.3c0.7-0.7,1.5-1.1,2.3-1.1c0.9,0,1.6,0.3,2.3,1.1c0.7,0.7,1.1,1.5,1.1,2.3
			c0,0.9-0.3,1.7-1.1,2.3c-0.7,0.7-1.5,1.1-2.3,1.1c-0.9,0-1.7-0.3-2.3-1.1C199.2,20.6,199,19.8,199,18.8L199,18.8z"/>
		
			<linearGradient id="SVGID_14_" gradientUnits="userSpaceOnUse" x1="213.0615" y1="-874.9717" x2="213.0615" y2="-870.1463" gradientTransform="matrix(1 0 0 -1 0 -840.378)">
			<stop  offset="0" style="stop-color:#1E8ECF"/>
			<stop  offset="1" style="stop-color:#41B3DF"/>
		</linearGradient>
		<path class="st17" d="M216.6,34.6H208v-4.8h8.6c0.9,0,1.6,0.7,1.6,1.6V33C218.3,33.9,217.5,34.6,216.6,34.6z"/>
	</g>
	<g>
		
			<linearGradient id="SVGID_15_" gradientUnits="userSpaceOnUse" x1="265.4168" y1="-862.9122" x2="265.4168" y2="-855.9213" gradientTransform="matrix(1 0 0 -1 0 -840.378)">
			<stop  offset="0" style="stop-color:#1E8ECF"/>
			<stop  offset="1" style="stop-color:#41B3DF"/>
		</linearGradient>
		<path class="st18" d="M256.7,22.5h18.9c0,0,2.4,0.3,2.4-2.3c0-2.3-2.4-2.4-2.4-2.4h-17.2v-2.3h-5.6V19
			C252.7,21.3,254,22.5,256.7,22.5L256.7,22.5z"/>
		
			<linearGradient id="SVGID_16_" gradientUnits="userSpaceOnUse" x1="246.6195" y1="-862.5507" x2="246.6195" y2="-855.9304" gradientTransform="matrix(1 0 0 -1 0 -840.378)">
			<stop  offset="0" style="stop-color:#1E8ECF"/>
			<stop  offset="1" style="stop-color:#41B3DF"/>
		</linearGradient>
		<path class="st19" d="M243.3,18.8c0-0.9,0.3-1.7,1.1-2.3c0.7-0.7,1.5-1.1,2.3-1.1c0.9,0,1.6,0.3,2.3,1.1c0.7,0.7,1.1,1.5,1.1,2.3
			c0,0.9-0.3,1.7-1.1,2.3c-0.7,0.7-1.5,1.1-2.3,1.1c-0.9,0-1.7-0.3-2.3-1.1C243.7,20.6,243.3,19.8,243.3,18.8z"/>
		<g>
			
				<linearGradient id="SVGID_17_" gradientUnits="userSpaceOnUse" x1="264.6931" y1="-890.4845" x2="264.6931" y2="-866.0563" gradientTransform="matrix(1 0 0 -1 0 -840.378)">
				<stop  offset="0" style="stop-color:#1E8ECF"/>
				<stop  offset="1" style="stop-color:#41B3DF"/>
			</linearGradient>
			
				<linearGradient id="SVGID_18_" gradientUnits="userSpaceOnUse" x1="264.6931" y1="-890.6102" x2="264.6931" y2="-865.9312" gradientTransform="matrix(1 0 0 -1 0 -840.378)">
				<stop  offset="0" style="stop-color:#1590D0"/>
				<stop  offset="1" style="stop-color:#3FB2DF"/>
			</linearGradient>
			<path class="st20" d="M277.1,35.5v-5c0-1.5-0.5-2.5-1.5-3.6c-0.9-0.9-2.3-1.3-3.8-1.3H258c-1.6,0-2.9,0.5-3.8,1.5
				c-1.1,1.1-1.5,2.1-1.5,3.4v5.2h-1.2v3.6h1.2v6c0,1.5,0.4,2.6,1.2,3.6c1.1,1.1,2.3,1.5,4.1,1.5h13.5c3.6,0,5.3-1.9,5.3-5.7v-5.3
				h1.1v-3.6h-0.8V35.5z M273.4,44c0,1.6-0.8,2.4-2.3,2.4h-12.6c-1.5,0-2.3-0.7-2.3-2.3V39h6.6v5.3h3.6v-5.2h6.9V44z M273.4,35.5
				h-6.9v-4.1h-3.6v4.1h-6.6v-4c0-1.5,0.8-2.3,2.4-2.3H271c0.8,0,1.5,0.3,1.9,0.7s0.7,0.8,0.7,1.5L273.4,35.5L273.4,35.5z"/>
		</g>
		
			<linearGradient id="SVGID_19_" gradientUnits="userSpaceOnUse" x1="246.4283" y1="-890.0598" x2="246.4283" y2="-864.8752" gradientTransform="matrix(1 0 0 -1 0 -840.378)">
			<stop  offset="0" style="stop-color:#1E8ECF"/>
			<stop  offset="1" style="stop-color:#41B3DF"/>
		</linearGradient>
		<path class="st21" d="M248.2,40.4h-4.9c0,0,1.9-3.6,2.3-4.8c0.8-2.8-0.3-4.8-1.7-5.6v-5.7c4.8,1.6,7.7,5.3,6.5,10.6
			C249.9,36.6,248.2,40.4,248.2,40.4z M245.7,35.5l4.8-0.7c0,0-1.7,4.2-2.1,5.6c-0.9,2.8,0,2.8,1.5,3.6l-0.3,5.7
			c-4.8-1.9-9.4-4.6-6.2-9.1C244.2,39.4,245.7,35.5,245.7,35.5z"/>
	</g>
	<path class="st22" d="M111.3,60.9c-0.7,0.7-1.1,1.5-1.9,2.1l-0.4-1.2c1.9-2,3.2-4.4,4-6.9l1.1,0.5c-0.4,1.3-1.1,2.5-1.6,3.7v11
		h-1.2V60.9L111.3,60.9z M116.2,58.2c-0.5,1.2-1.1,2.4-1.9,3.6l-1.1-0.7c1.2-1.9,2.1-3.8,2.6-6.1l1.1,0.3c-0.1,0.5-0.3,1.1-0.7,1.9
		h7v0.8c-0.3,1.1-0.7,2-1.1,3l-1.1-0.3c0.4-0.7,0.7-1.5,0.9-2.3h-6V58.2z M116.9,62c-0.7,2.3-1.5,4.4-2.3,6.1l-1.1-0.4
		c0.9-1.6,1.7-3.6,2.3-6L116.9,62z M116.1,69.9l-0.3-1.1c0.8,0.1,1.5,0.1,2,0.1c0.4,0,0.7-0.3,0.7-0.7v-8.7h1.1v9
		c0,0.9-0.5,1.5-1.5,1.5L116.1,69.9L116.1,69.9z M121.9,61.6c0.8,1.9,1.5,4,2.3,6.2l-1.1,0.4c-0.7-2.4-1.5-4.5-2.3-6.5L121.9,61.6z"
		/>
	<path class="st22" d="M140.8,57.4c0.7,1.7,1.2,3.2,1.6,4.4l-1.1,0.4c-0.3-0.7-0.3-1.1-0.5-1.5c-1.2,0.5-2.8,1.1-4.8,1.5l-0.4-1.1
		c0.4-0.3,0.5-0.5,0.5-0.8v-4.1c2.1-0.3,4-0.7,5.3-1.5l0.7,1.1c-1.2,0.7-2.8,1.1-4.8,1.3v3.6c1.5-0.4,2.4-0.8,3.2-1.1
		c-0.3-0.7-0.5-1.5-0.7-1.9L140.8,57.4z M148.5,62.8v7.3h-1.2v-0.7h-9.1v0.7H137v-7.3H148.5L148.5,62.8z M138,65.6h4v-1.7h-4V65.6z
		 M138,68.2h4v-1.6h-4V68.2z M142.7,56.8v-1.2h6.5c0,2.5-0.3,4.2-0.4,4.9c-0.3,0.9-0.9,1.5-1.9,1.5c-0.4,0-0.8,0-1.3-0.1l-0.3-1.1
		c0.8,0,1.3,0.1,1.5,0.1c0.5,0,0.8-0.4,1.1-1.1c0.1-0.5,0.3-1.5,0.3-3.2h-2.5c-0.3,1.3-0.4,2.3-0.7,2.9c-0.4,0.9-0.9,1.6-1.6,2.3
		l-0.7-0.9c0.5-0.7,1.1-1.2,1.2-2c0.3-0.7,0.4-1.5,0.7-2.5L142.7,56.8L142.7,56.8z M143.3,63.8v1.7h4v-1.7
		C147.2,63.8,143.3,63.8,143.3,63.8z M143.3,68.2h4v-1.6h-4V68.2z"/>
	<path class="st22" d="M164.8,60.8h8.9v1.1c-1.1,0.7-2.3,1.5-3.6,2v0.8h6.2v1.1h-6.2v2.8c0,0.9-0.5,1.3-1.5,1.3h-2.1l-0.3-1.1
		c0.8,0,1.5,0,1.9,0c0.4,0,0.7-0.3,0.7-0.7v-2.3h-6.6v-1.1h6.6v-1.3c1.5-0.7,2.4-1.1,3.2-1.5h-7.1L164.8,60.8L164.8,60.8z
		 M176.2,58.3V62H175v-2.6h-11.5v2.5h-1.1v-3.7h9.4c0.7-1.1,1.3-2.3,1.9-3.4l1.2,0.4c-0.7,1.2-1.2,2.3-1.9,3L176.2,58.3L176.2,58.3z
		 M164.7,55.1c0.7,0.9,1.2,1.7,1.7,2.6l-1.1,0.5c-0.7-1.1-1.1-1.9-1.7-2.6L164.7,55.1z M168.6,54.8c0.7,0.9,1.1,1.9,1.5,2.6L169,58
		c-0.5-1.1-1.1-1.9-1.6-2.6L168.6,54.8z"/>
	<path class="st22" d="M216.2,63.7c-1.1,0.3-2,0.7-3,0.9v3.6c0,1.1-0.5,1.5-1.5,1.5h-1.9l-0.3-1.1c0.7,0.1,1.2,0.1,1.7,0.1
		c0.5,0,0.7-0.3,0.7-0.8v-3c-1.2,0.3-2.3,0.5-3.2,0.7l-0.3-1.2c1.5-0.3,2.6-0.4,3.4-0.7v-3.2h-3.4v-1.1h3.4v-2.3
		c-0.8,0.3-1.7,0.3-2.6,0.5l-0.3-1.1c2.4-0.3,4.4-0.7,6.2-1.5l0.4,1.1c-0.7,0.3-1.5,0.5-2.4,0.7v2.5h4c-0.1-1.5-0.3-2.8-0.3-4.4h1.2
		c0,1.7,0.1,3.2,0.3,4.4h5.2v1.1h-5c0.1,1.2,0.3,2.3,0.5,3c0.1,0.3,0.3,0.7,0.3,1.2c0.8-1.1,1.5-2.1,2.1-3.3l1.1,0.7
		c-0.8,1.5-1.7,2.9-2.6,4c0.3,0.7,0.5,1.1,0.7,1.5c0.5,0.8,1.1,1.2,1.3,1.2s0.7-0.9,0.9-2.8l1.1,0.7c-0.4,2.3-1.1,3.6-1.7,3.6
		s-1.5-0.5-2.3-1.5c-0.3-0.5-0.7-1.1-0.9-1.6c-1.2,1.1-2.5,1.9-4,2.5l-0.7-1.1c1.6-0.7,3-1.5,4.2-2.6c-0.3-0.7-0.4-1.1-0.7-1.9
		c-0.3-1.1-0.4-2-0.7-3.3h-4.1v3c1.1-0.3,2.1-0.7,3-0.9V64l0,0V63.7z M219.9,55c1.2,0.8,2.3,1.6,3,2.4l-0.9,0.9
		c-0.8-0.8-1.9-1.6-3-2.5L219.9,55z"/>
	<path class="st22" d="M239.6,70.1h-1.2v-8.5c-0.7,1.6-1.3,3-2.3,4.4l-0.5-1.2c1.2-1.6,2.1-3.4,2.6-5.6H236v-1.1h2.3v-3.3h1.2V58
		h2.1v1.1h-2.1v1.1c0.7,0.8,1.5,1.7,2.3,2.6l-0.7,1.1c-0.7-1.1-1.2-1.9-1.6-2.4v8.6H239.6z M250.3,55.8v14.3h-1.2V69h-5.4v1.1h-1.1
		V55.8H250.3L250.3,55.8z M243.7,59.9h5.4v-2.8h-5.4V59.9L243.7,59.9z M243.7,63.8h5.4v-2.9h-5.4V63.8L243.7,63.8z M243.7,67.8h5.4
		v-2.9h-5.4V67.8L243.7,67.8z"/>
	<path class="st22" d="M263.3,55.5h4.1v0.9c-0.3,1.5-0.7,2.8-1.1,4.4c0.7,1.5,1.1,2.6,1.1,3.6c0,0.7-0.1,1.2-0.4,1.5
		c-0.4,0.4-1.1,0.7-1.9,0.7l-0.3-1.1c0.3,0,0.7,0.1,0.9,0.1c0.3,0,0.4-0.1,0.7-0.3c0.1-0.3,0.3-0.4,0.3-0.8c0-1.1-0.4-2.3-1.1-3.6
		c0.5-1.7,0.8-3.2,1.1-4.4h-2v13.4h-1.3L263.3,55.5L263.3,55.5z M277.9,68.6l-0.3,1.1h-3.2c-0.3,0-0.8,0-1.5,0
		c-0.7,0-1.3-0.1-1.9-0.3c-0.5-0.3-1.1-0.5-1.3-1.1c-0.3-0.3-0.4-0.3-0.5-0.3c-0.3,0-1.1,0.7-1.9,1.9l-0.7-0.9
		c0.8-1.1,1.5-1.9,2.1-2v-5.7h-1.5v-1.1h2.5v6.9l0.1,0.1c0.3,0.4,0.7,0.7,1.2,1.1c0.5,0.3,1.1,0.3,1.5,0.3c0.8,0,1.5,0,1.7,0
		C275.4,68.6,276.4,68.6,277.9,68.6z M268.7,55.8c0.7,0.9,1.1,1.9,1.5,2.6l-0.9,0.7c-0.4-0.9-0.9-1.9-1.5-2.6L268.7,55.8z
		 M270.6,56.4h2.3c0.3-0.8,0.3-1.3,0.3-1.6l1.1,0.3l-0.3,1.5h3.7v0.9h-4c-0.1,0.5-0.3,1.1-0.7,1.6h4v7.3c0,0.7-0.4,1.1-1.1,1.1h-1.2
		l-0.3-1.1c0.5,0,0.9,0.1,1.1,0.1c0.3,0,0.4-0.3,0.4-0.5v-1.3h-2.8v2.8H272v-6c-0.4,0.7-0.8,1.1-1.2,1.5l-0.7-0.8
		c1.1-1.2,1.9-2.6,2.4-4.5h-2L270.6,56.4L270.6,56.4z M276,61.6v-1.5h-2.9v1.5H276z M273.1,62.7v1.5h2.9v-1.5H273.1z"/>
</g>
</svg>
